{
  "accessors": [
    {
      "bufferView": 1,
      "componentType": 5126,
      "type": "VEC3",
      "count": 2346,
      "min": [-9, -16, 1],
      "max": [7, 16, 6]
    },
    {
      "bufferView": 1,
      "componentType": 5126,
      "type": "VEC3",
      "byteOffset": 12,
      "count": 2346
    },
    {
      "bufferView": 1,
      "componentType": 5126,
      "type": "VEC2",
      "byteOffset": 24,
      "count": 2346
    },
    {
      "bufferView": 2,
      "componentType": 5125,
      "type": "SCALAR",
      "count": 9072
    },
    {
      "bufferView": 3,
      "componentType": 5126,
      "type": "VEC3",
      "count": 102,
      "min": [-1, -13, 3],
      "max": [7, -11, 4]
    },
    {
      "bufferView": 3,
      "componentType": 5126,
      "type": "VEC3",
      "byteOffset": 12,
      "count": 102
    },
    {
      "bufferView": 3,
      "componentType": 5126,
      "type": "VEC2",
      "byteOffset": 24,
      "count": 102
    },
    {
      "bufferView": 4,
      "componentType": 5125,
      "type": "SCALAR",
      "count": 312
    },
    {
      "bufferView": 5,
      "componentType": 5126,
      "type": "VEC3",
      "count": 72,
      "min": [-1, -11, 3],
      "max": [4, -10, 5]
    },
    {
      "bufferView": 5,
      "componentType": 5126,
      "type": "VEC3",
      "byteOffset": 12,
      "count": 72
    },
    {
      "bufferView": 5,
      "componentType": 5126,
      "type": "VEC2",
      "byteOffset": 24,
      "count": 72
    },
    {
      "bufferView": 6,
      "componentType": 5125,
      "type": "SCALAR",
      "count": 204
    },
    {
      "bufferView": 7,
      "componentType": 5126,
      "type": "VEC3",
      "count": 102,
      "min": [-1, -10, 3],
      "max": [7, -8, 4]
    },
    {
      "bufferView": 7,
      "componentType": 5126,
      "type": "VEC3",
      "byteOffset": 12,
      "count": 102
    },
    {
      "bufferView": 7,
      "componentType": 5126,
      "type": "VEC2",
      "byteOffset": 24,
      "count": 102
    },
    {
      "bufferView": 8,
      "componentType": 5125,
      "type": "SCALAR",
      "count": 312
    },
    {
      "bufferView": 9,
      "componentType": 5126,
      "type": "VEC3",
      "count": 102,
      "min": [-1, -7, 3],
      "max": [7, -5, 4]
    },
    {
      "bufferView": 9,
      "componentType": 5126,
      "type": "VEC3",
      "byteOffset": 12,
      "count": 102
    },
    {
      "bufferView": 9,
      "componentType": 5126,
      "type": "VEC2",
      "byteOffset": 24,
      "count": 102
    },
    {
      "bufferView": 10,
      "componentType": 5125,
      "type": "SCALAR",
      "count": 312
    },
    {
      "bufferView": 11,
      "componentType": 5126,
      "type": "VEC3",
      "count": 72,
      "min": [-1, -5, 3],
      "max": [4, -4, 5]
    },
    {
      "bufferView": 11,
      "componentType": 5126,
      "type": "VEC3",
      "byteOffset": 12,
      "count": 72
    },
    {
      "bufferView": 11,
      "componentType": 5126,
      "type": "VEC2",
      "byteOffset": 24,
      "count": 72
    },
    {
      "bufferView": 12,
      "componentType": 5125,
      "type": "SCALAR",
      "count": 204
    },
    {
      "bufferView": 13,
      "componentType": 5126,
      "type": "VEC3",
      "count": 102,
      "min": [-1, -4, 3],
      "max": [7, -2, 4]
    },
    {
      "bufferView": 13,
      "componentType": 5126,
      "type": "VEC3",
      "byteOffset": 12,
      "count": 102
    },
    {
      "bufferView": 13,
      "componentType": 5126,
      "type": "VEC2",
      "byteOffset": 24,
      "count": 102
    },
    {
      "bufferView": 14,
      "componentType": 5125,
      "type": "SCALAR",
      "count": 312
    },
    {
      "bufferView": 15,
      "componentType": 5126,
      "type": "VEC3",
      "count": 72,
      "min": [-1, -2, 3],
      "max": [4, -1, 5]
    },
    {
      "bufferView": 15,
      "componentType": 5126,
      "type": "VEC3",
      "byteOffset": 12,
      "count": 72
    },
    {
      "bufferView": 15,
      "componentType": 5126,
      "type": "VEC2",
      "byteOffset": 24,
      "count": 72
    },
    {
      "bufferView": 16,
      "componentType": 5125,
      "type": "SCALAR",
      "count": 204
    },
    {
      "bufferView": 17,
      "componentType": 5126,
      "type": "VEC3",
      "count": 102,
      "min": [-1, -1, 3],
      "max": [7, 1, 4]
    },
    {
      "bufferView": 17,
      "componentType": 5126,
      "type": "VEC3",
      "byteOffset": 12,
      "count": 102
    },
    {
      "bufferView": 17,
      "componentType": 5126,
      "type": "VEC2",
      "byteOffset": 24,
      "count": 102
    },
    {
      "bufferView": 18,
      "componentType": 5125,
      "type": "SCALAR",
      "count": 312
    },
    {
      "bufferView": 19,
      "componentType": 5126,
      "type": "VEC3",
      "count": 102,
      "min": [-1, 2, 3],
      "max": [7, 4, 4]
    },
    {
      "bufferView": 19,
      "componentType": 5126,
      "type": "VEC3",
      "byteOffset": 12,
      "count": 102
    },
    {
      "bufferView": 19,
      "componentType": 5126,
      "type": "VEC2",
      "byteOffset": 24,
      "count": 102
    },
    {
      "bufferView": 20,
      "componentType": 5125,
      "type": "SCALAR",
      "count": 312
    },
    {
      "bufferView": 21,
      "componentType": 5126,
      "type": "VEC3",
      "count": 72,
      "min": [-1, 4, 3],
      "max": [4, 5, 5]
    },
    {
      "bufferView": 21,
      "componentType": 5126,
      "type": "VEC3",
      "byteOffset": 12,
      "count": 72
    },
    {
      "bufferView": 21,
      "componentType": 5126,
      "type": "VEC2",
      "byteOffset": 24,
      "count": 72
    },
    {
      "bufferView": 22,
      "componentType": 5125,
      "type": "SCALAR",
      "count": 204
    },
    {
      "bufferView": 23,
      "componentType": 5126,
      "type": "VEC3",
      "count": 102,
      "min": [-1, 5, 3],
      "max": [7, 7, 4]
    },
    {
      "bufferView": 23,
      "componentType": 5126,
      "type": "VEC3",
      "byteOffset": 12,
      "count": 102
    },
    {
      "bufferView": 23,
      "componentType": 5126,
      "type": "VEC2",
      "byteOffset": 24,
      "count": 102
    },
    {
      "bufferView": 24,
      "componentType": 5125,
      "type": "SCALAR",
      "count": 312
    },
    {
      "bufferView": 25,
      "componentType": 5126,
      "type": "VEC3",
      "count": 72,
      "min": [-1, 7, 3],
      "max": [4, 8, 5]
    },
    {
      "bufferView": 25,
      "componentType": 5126,
      "type": "VEC3",
      "byteOffset": 12,
      "count": 72
    },
    {
      "bufferView": 25,
      "componentType": 5126,
      "type": "VEC2",
      "byteOffset": 24,
      "count": 72
    },
    {
      "bufferView": 26,
      "componentType": 5125,
      "type": "SCALAR",
      "count": 204
    },
    {
      "bufferView": 27,
      "componentType": 5126,
      "type": "VEC3",
      "count": 102,
      "min": [-1, 8, 3],
      "max": [7, 10, 4]
    },
    {
      "bufferView": 27,
      "componentType": 5126,
      "type": "VEC3",
      "byteOffset": 12,
      "count": 102
    },
    {
      "bufferView": 27,
      "componentType": 5126,
      "type": "VEC2",
      "byteOffset": 24,
      "count": 102
    },
    {
      "bufferView": 28,
      "componentType": 5125,
      "type": "SCALAR",
      "count": 312
    },
    {
      "bufferView": 29,
      "componentType": 5126,
      "type": "VEC3",
      "count": 72,
      "min": [-1, 10, 3],
      "max": [4, 11, 5]
    },
    {
      "bufferView": 29,
      "componentType": 5126,
      "type": "VEC3",
      "byteOffset": 12,
      "count": 72
    },
    {
      "bufferView": 29,
      "componentType": 5126,
      "type": "VEC2",
      "byteOffset": 24,
      "count": 72
    },
    {
      "bufferView": 30,
      "componentType": 5125,
      "type": "SCALAR",
      "count": 204
    },
    {
      "bufferView": 31,
      "componentType": 5126,
      "type": "VEC3",
      "count": 102,
      "min": [-1, 11, 3],
      "max": [7, 13, 4]
    },
    {
      "bufferView": 31,
      "componentType": 5126,
      "type": "VEC3",
      "byteOffset": 12,
      "count": 102
    },
    {
      "bufferView": 31,
      "componentType": 5126,
      "type": "VEC2",
      "byteOffset": 24,
      "count": 102
    },
    {
      "bufferView": 32,
      "componentType": 5125,
      "type": "SCALAR",
      "count": 312
    }
  ],
  "asset": {
    "generator": "goxel",
    "version": "2.0"
  },
  "bufferViews": [
    {
      "buffer": 0,
      "byteLength": 237
    },
    {
      "buffer": 1,
      "byteLength": 93840,
      "byteStride": 40
    },
    {
      "buffer": 2,
      "byteLength": 36288
    },
    {
      "buffer": 3,
      "byteLength": 4080,
      "byteStride": 40
    },
    {
      "buffer": 4,
      "byteLength": 1248
    },
    {
      "buffer": 5,
      "byteLength": 2880,
      "byteStride": 40
    },
    {
      "buffer": 6,
      "byteLength": 816
    },
    {
      "buffer": 7,
      "byteLength": 4080,
      "byteStride": 40
    },
    {
      "buffer": 8,
      "byteLength": 1248
    },
    {
      "buffer": 9,
      "byteLength": 4080,
      "byteStride": 40
    },
    {
      "buffer": 10,
      "byteLength": 1248
    },
    {
      "buffer": 11,
      "byteLength": 2880,
      "byteStride": 40
    },
    {
      "buffer": 12,
      "byteLength": 816
    },
    {
      "buffer": 13,
      "byteLength": 4080,
      "byteStride": 40
    },
    {
      "buffer": 14,
      "byteLength": 1248
    },
    {
      "buffer": 15,
      "byteLength": 2880,
      "byteStride": 40
    },
    {
      "buffer": 16,
      "byteLength": 816
    },
    {
      "buffer": 17,
      "byteLength": 4080,
      "byteStride": 40
    },
    {
      "buffer": 18,
      "byteLength": 1248
    },
    {
      "buffer": 19,
      "byteLength": 4080,
      "byteStride": 40
    },
    {
      "buffer": 20,
      "byteLength": 1248
    },
    {
      "buffer": 21,
      "byteLength": 2880,
      "byteStride": 40
    },
    {
      "buffer": 22,
      "byteLength": 816
    },
    {
      "buffer": 23,
      "byteLength": 4080,
      "byteStride": 40
    },
    {
      "buffer": 24,
      "byteLength": 1248
    },
    {
      "buffer": 25,
      "byteLength": 2880,
      "byteStride": 40
    },
    {
      "buffer": 26,
      "byteLength": 816
    },
    {
      "buffer": 27,
      "byteLength": 4080,
      "byteStride": 40
    },
    {
      "buffer": 28,
      "byteLength": 1248
    },
    {
      "buffer": 29,
      "byteLength": 2880,
      "byteStride": 40
    },
    {
      "buffer": 30,
      "byteLength": 816
    },
    {
      "buffer": 31,
      "byteLength": 4080,
      "byteStride": 40
    },
    {
      "buffer": 32,
      "byteLength": 1248
    }
  ],
  "buffers": [
    {
      "uri": "data:application/octet-stream;base64,",
      "byteLength": 237
    },
    {
      "uri": "data:application/octet-stream;base64,",
      "byteLength": 93840
    },
    {
      "uri": "data:application/octet-stream;base64,",
      "byteLength": 36288
    },
    {
      "uri": "data:application/octet-stream;base64,",
      "byteLength": 4080
    },
    {
      "uri": "data:application/octet-stream;base64,",
      "byteLength": 1248
    },
    {
      "uri": "data:application/octet-stream;base64,",
      "byteLength": 2880
    },
    {
      "uri": "data:application/octet-stream;base64,",
      "byteLength": 816
    },
    {
      "uri": "data:application/octet-stream;base64,",
      "byteLength": 4080
    },
    {
      "uri": "data:application/octet-stream;base64,",
      "byteLength": 1248
    },
    {
      "uri": "data:application/octet-stream;base64,",
      "byteLength": 4080
    },
    {
      "uri": "data:application/octet-stream;base64,",
      "byteLength": 1248
    },
    {
      "uri": "data:application/octet-stream;base64,",
      "byteLength": 2880
    },
    {
      "uri": "data:application/octet-stream;base64,",
      "byteLength": 816
    },
    {
      "uri": "data:application/octet-stream;base64,",
      "byteLength": 4080
    },
    {
      "uri": "data:application/octet-stream;base64,",
      "byteLength": 1248
    },
    {
      "uri": "data:application/octet-stream;base64,",
      "byteLength": 2880
    },
    {
      "uri": "data:application/octet-stream;base64,",
      "byteLength": 816
    },
    {
      "uri": "data:application/octet-stream;base64,",
      "byteLength": 4080
    },
    {
      "uri": "data:application/octet-stream;base64,",
      "byteLength": 1248
    },
    {
      "uri": "data:application/octet-stream;base64,",
      "byteLength": 4080
    },
    {
      "uri": "data:application/octet-stream;base64,",
      "byteLength": 1248
    },
    {
      "uri": "data:application/octet-stream;base64,",
      "byteLength": 2880
    },
    {
      "uri": "data:application/octet-stream;base64,",
      "byteLength": 816
    },
    {
      "uri": "data:application/octet-stream;base64,",
      "byteLength": 4080
    },
    {
      "uri": "data:application/octet-stream;base64,",
      "byteLength": 1248
    },
    {
      "uri": "data:application/octet-stream;base64,",
      "byteLength": 2880
    },
    {
      "uri": "data:application/octet-stream;base64,",
      "byteLength": 816
    },
    {
      "uri": "data:application/octet-stream;base64,",
      "byteLength": 4080
    },
    {
      "uri": "data:application/octet-stream;base64,",
      "byteLength": 1248
    },
    {
      "uri": "data:application/octet-stream;base64,",
      "byteLength": 2880
    },
    {
      "uri": "data:application/octet-stream;base64,",
      "byteLength": 816
    },
    {
      "uri": "data:application/octet-stream;base64,",
      "byteLength": 4080
    },
    {
      "uri": "data:application/octet-stream;base64,",
      "byteLength": 1248
    }
  ],
  "images": [
    {
      "bufferView": 0,
      "mimeType": "image/png"
    }
  ],
  "meshes": [
    {
      "primitives": [
        {
          "indices": 3,
          "material": 0,
          "attributes": {
            "POSITION": 0,
            "NORMAL": 1,
            "TEXCOORD_0": 2
          }
        }
      ]
    },
    {
      "primitives": [
        {
          "indices": 7,
          "material": 0,
          "attributes": {
            "POSITION": 4,
            "NORMAL": 5,
            "TEXCOORD_0": 6
          }
        }
      ]
    },
    {
      "primitives": [
        {
          "indices": 11,
          "material": 0,
          "attributes": {
            "POSITION": 8,
            "NORMAL": 9,
            "TEXCOORD_0": 10
          }
        }
      ]
    },
    {
      "primitives": [
        {
          "indices": 15,
          "material": 0,
          "attributes": {
            "POSITION": 12,
            "NORMAL": 13,
            "TEXCOORD_0": 14
          }
        }
      ]
    },
    {
      "primitives": [
        {
          "indices": 19,
          "material": 0,
          "attributes": {
            "POSITION": 16,
            "NORMAL": 17,
            "TEXCOORD_0": 18
          }
        }
      ]
    },
    {
      "primitives": [
        {
          "indices": 23,
          "material": 0,
          "attributes": {
            "POSITION": 20,
            "NORMAL": 21,
            "TEXCOORD_0": 22
          }
        }
      ]
    },
    {
      "primitives": [
        {
          "indices": 27,
          "material": 0,
          "attributes": {
            "POSITION": 24,
            "NORMAL": 25,
            "TEXCOORD_0": 26
          }
        }
      ]
    },
    {
      "primitives": [
        {
          "indices": 31,
          "material": 0,
          "attributes": {
            "POSITION": 28,
            "NORMAL": 29,
            "TEXCOORD_0": 30
          }
        }
      ]
    },
    {
      "primitives": [
        {
          "indices": 35,
          "material": 0,
          "attributes": {
            "POSITION": 32,
            "NORMAL": 33,
            "TEXCOORD_0": 34
          }
        }
      ]
    },
    {
      "primitives": [
        {
          "indices": 39,
          "material": 0,
          "attributes": {
            "POSITION": 36,
            "NORMAL": 37,
            "TEXCOORD_0": 38
          }
        }
      ]
    },
    {
      "primitives": [
        {
          "indices": 43,
          "material": 0,
          "attributes": {
            "POSITION": 40,
            "NORMAL": 41,
            "TEXCOORD_0": 42
          }
        }
      ]
    },
    {
      "primitives": [
        {
          "indices": 47,
          "material": 0,
          "attributes": {
            "POSITION": 44,
            "NORMAL": 45,
            "TEXCOORD_0": 46
          }
        }
      ]
    },
    {
      "primitives": [
        {
          "indices": 51,
          "material": 0,
          "attributes": {
            "POSITION": 48,
            "NORMAL": 49,
            "TEXCOORD_0": 50
          }
        }
      ]
    },
    {
      "primitives": [
        {
          "indices": 55,
          "material": 0,
          "attributes": {
            "POSITION": 52,
            "NORMAL": 53,
            "TEXCOORD_0": 54
          }
        }
      ]
    },
    {
      "primitives": [
        {
          "indices": 59,
          "material": 0,
          "attributes": {
            "POSITION": 56,
            "NORMAL": 57,
            "TEXCOORD_0": 58
          }
        }
      ]
    },
    {
      "primitives": [
        {
          "indices": 63,
          "material": 0,
          "attributes": {
            "POSITION": 60,
            "NORMAL": 61,
            "TEXCOORD_0": 62
          }
        }
      ]
    }
  ],
  "materials": [
    {
      "name": "Material.1",
      "pbrMetallicRoughness": {
        "baseColorTexture": {
          "index": 0
        },
        "metallicFactor": 0.200000003,
        "roughnessFactor": 0.5
      }
    }
  ],
  "nodes": [
    {
      "children": [ 1, 2, 3, 4, 5, 6, 7, 8, 9, 10, 11, 12, 13, 14, 15, 16 ],
      "matrix": [1, 0, 0, 0, 0, 0, -1, 0, 0, 1, 0, 0, 0, 0, 0, 1]
    },
    {
      "mesh": 0,
      "name": "Base"
    },
    {
      "mesh": 1,
      "name": "Key01"
    },
    {
      "mesh": 2,
      "name": "Key02"
    },
    {
      "mesh": 3,
      "name": "Key03"
    },
    {
      "mesh": 4,
      "name": "Key04"
    },
    {
      "mesh": 5,
      "name": "Key05"
    },
    {
      "mesh": 6,
      "name": "Key04"
    },
    {
      "mesh": 7,
      "name": "Key05"
    },
    {
      "mesh": 8,
      "name": "Key06"
    },
    {
      "mesh": 9,
      "name": "Key06"
    },
    {
      "mesh": 10,
      "name": "Key07"
    },
    {
      "mesh": 11,
      "name": "Key08"
    },
    {
      "mesh": 12,
      "name": "Key09"
    },
    {
      "mesh": 13,
      "name": "Key10"
    },
    {
      "mesh": 14,
      "name": "Key11"
    },
    {
      "mesh": 15,
      "name": "Key12"
    }
  ],
  "scenes": [
    {
      "nodes": [ 0 ]
    }
  ],
  "textures": [
    {
      "source": 0
    }
  ]
}
