{
  "accessors": [
    {
      "bufferView": 1,
      "componentType": 5126,
      "type": "VEC3",
      "count": 130,
      "min": [0, -2, 0],
      "max": [5, -1, 6]
    },
    {
      "bufferView": 1,
      "componentType": 5126,
      "type": "VEC3",
      "byteOffset": 12,
      "count": 130
    },
    {
      "bufferView": 1,
      "componentType": 5126,
      "type": "VEC2",
      "byteOffset": 24,
      "count": 130
    },
    {
      "bufferView": 2,
      "componentType": 5125,
      "type": "SCALAR",
      "count": 312
    },
    {
      "bufferView": 3,
      "componentType": 5126,
      "type": "VEC3",
      "count": 1712,
      "min": [-7, -5, 3],
      "max": [0, 2, 23]
    },
    {
      "bufferView": 3,
      "componentType": 5126,
      "type": "VEC3",
      "byteOffset": 12,
      "count": 1712
    },
    {
      "bufferView": 3,
      "componentType": 5126,
      "type": "VEC2",
      "byteOffset": 24,
      "count": 1712
    },
    {
      "bufferView": 4,
      "componentType": 5125,
      "type": "SCALAR",
      "count": 4356
    },
    {
      "bufferView": 5,
      "componentType": 5126,
      "type": "VEC3",
      "count": 130,
      "min": [-4, 2, 0],
      "max": [-3, 7, 6]
    },
    {
      "bufferView": 5,
      "componentType": 5126,
      "type": "VEC3",
      "byteOffset": 12,
      "count": 130
    },
    {
      "bufferView": 5,
      "componentType": 5126,
      "type": "VEC2",
      "byteOffset": 24,
      "count": 130
    },
    {
      "bufferView": 6,
      "componentType": 5125,
      "type": "SCALAR",
      "count": 312
    },
    {
      "bufferView": 7,
      "componentType": 5126,
      "type": "VEC3",
      "count": 130,
      "min": [-12, -2, 0],
      "max": [-7, -1, 6]
    },
    {
      "bufferView": 7,
      "componentType": 5126,
      "type": "VEC3",
      "byteOffset": 12,
      "count": 130
    },
    {
      "bufferView": 7,
      "componentType": 5126,
      "type": "VEC2",
      "byteOffset": 24,
      "count": 130
    },
    {
      "bufferView": 8,
      "componentType": 5125,
      "type": "SCALAR",
      "count": 312
    },
    {
      "bufferView": 9,
      "componentType": 5126,
      "type": "VEC3",
      "count": 130,
      "min": [-4, -10, 0],
      "max": [-3, -5, 6]
    },
    {
      "bufferView": 9,
      "componentType": 5126,
      "type": "VEC3",
      "byteOffset": 12,
      "count": 130
    },
    {
      "bufferView": 9,
      "componentType": 5126,
      "type": "VEC2",
      "byteOffset": 24,
      "count": 130
    },
    {
      "bufferView": 10,
      "componentType": 5125,
      "type": "SCALAR",
      "count": 312
    }
  ],
  "asset": {
    "generator": "goxel",
    "version": "2.0"
  },
  "bufferViews": [
    {
      "buffer": 0,
      "byteLength": 241
    },
    {
      "buffer": 1,
      "byteLength": 5200,
      "byteStride": 40
    },
    {
      "buffer": 2,
      "byteLength": 1248
    },
    {
      "buffer": 3,
      "byteLength": 68480,
      "byteStride": 40
    },
    {
      "buffer": 4,
      "byteLength": 17424
    },
    {
      "buffer": 5,
      "byteLength": 5200,
      "byteStride": 40
    },
    {
      "buffer": 6,
      "byteLength": 1248
    },
    {
      "buffer": 7,
      "byteLength": 5200,
      "byteStride": 40
    },
    {
      "buffer": 8,
      "byteLength": 1248
    },
    {
      "buffer": 9,
      "byteLength": 5200,
      "byteStride": 40
    },
    {
      "buffer": 10,
      "byteLength": 1248
    }
  ],
  "buffers": [
    {
      "uri": "data:application/octet-stream;base64,",
      "byteLength": 241
    },
    {
      "uri": "data:application/octet-stream;base64,",
      "byteLength": 5200
    },
    {
      "uri": "data:application/octet-stream;base64,",
      "byteLength": 1248
    },
    {
      "uri": "data:application/octet-stream;base64,",
      "byteLength": 68480
    },
    {
      "uri": "data:application/octet-stream;base64,",
      "byteLength": 17424
    },
    {
      "uri": "data:application/octet-stream;base64,",
      "byteLength": 5200
    },
    {
      "uri": "data:application/octet-stream;base64,",
      "byteLength": 1248
    },
    {
      "uri": "data:application/octet-stream;base64,",
      "byteLength": 5200
    },
    {
      "uri": "data:application/octet-stream;base64,",
      "byteLength": 1248
    },
    {
      "uri": "data:application/octet-stream;base64,",
      "byteLength": 5200
    },
    {
      "uri": "data:application/octet-stream;base64,",
      "byteLength": 1248
    }
  ],
  "images": [
    {
      "bufferView": 0,
      "mimeType": "image/png"
    }
  ],
  "meshes": [
    {
      "primitives": [
        {
          "indices": 3,
          "material": 0,
          "attributes": {
            "POSITION": 0,
            "NORMAL": 1,
            "TEXCOORD_0": 2
          }
        }
      ]
    },
    {
      "primitives": [
        {
          "indices": 7,
          "material": 0,
          "attributes": {
            "POSITION": 4,
            "NORMAL": 5,
            "TEXCOORD_0": 6
          }
        }
      ]
    },
    {
      "primitives": [
        {
          "indices": 11,
          "material": 0,
          "attributes": {
            "POSITION": 8,
            "NORMAL": 9,
            "TEXCOORD_0": 10
          }
        }
      ]
    },
    {
      "primitives": [
        {
          "indices": 15,
          "material": 0,
          "attributes": {
            "POSITION": 12,
            "NORMAL": 13,
            "TEXCOORD_0": 14
          }
        }
      ]
    },
    {
      "primitives": [
        {
          "indices": 19,
          "material": 0,
          "attributes": {
            "POSITION": 16,
            "NORMAL": 17,
            "TEXCOORD_0": 18
          }
        }
      ]
    }
  ],
  "materials": [
    {
      "name": "Material.1",
      "pbrMetallicRoughness": {
        "baseColorTexture": {
          "index": 0
        },
        "metallicFactor": 0.200000003,
        "roughnessFactor": 0.5
      }
    }
  ],
  "nodes": [
    {
      "children": [ 1, 2, 3, 4, 5 ],
      "matrix": [1, 0, 0, 0, 0, 0, -1, 0, 0, 1, 0, 0, 0, 0, 0, 1]
    },
    {
      "mesh": 0,
      "name": "Layer.2"
    },
    {
      "mesh": 1,
      "name": "Layer.1 clone"
    },
    {
      "mesh": 2,
      "name": "Layer.2 clone"
    },
    {
      "mesh": 3,
      "name": "Layer.3"
    },
    {
      "mesh": 4,
      "name": "Layer.4"
    }
  ],
  "scenes": [
    {
      "nodes": [ 0 ]
    }
  ],
  "textures": [
    {
      "source": 0
    }
  ]
}
